<?xml version="1.0" standalone="no"?>
<!DOCTYPE svg PUBLIC "-//W3C//DTD SVG 20010904//EN"
 "http://www.w3.org/TR/2001/REC-SVG-20010904/DTD/svg10.dtd">
<svg version="1.0" xmlns="http://www.w3.org/2000/svg"
 width="375.000000pt" height="375.000000pt" viewBox="0 0 375.000000 375.000000"
 preserveAspectRatio="xMidYMid meet">
<metadata>
Created by potrace 1.15, written by Peter Selinger 2001-2017
</metadata>
<g transform="translate(0.000000,375.000000) scale(0.100000,-0.100000)"
fill="#0f121f" stroke="none">
<path d="M1870 3739 c-36 -15 -70 -49 -70 -72 0 -11 -7 -28 -16 -38 -17 -19
-24 -143 -11 -221 7 -40 6 -48 -8 -48 -20 0 -145 -125 -145 -145 0 -9 10 -15
28 -16 25 -1 25 -2 -8 -11 -19 -5 -54 -20 -78 -31 -132 -66 -127 -62 -161
-134 -20 -41 -38 -99 -45 -148 -8 -50 -26 -108 -48 -155 -19 -41 -39 -90 -42
-107 -4 -18 -11 -33 -15 -33 -10 0 -31 -46 -31 -68 0 -9 -16 -35 -35 -56 -19
-22 -35 -48 -35 -58 0 -11 -7 -32 -15 -47 -14 -28 -38 -90 -55 -143 -5 -16
-18 -41 -29 -57 -12 -16 -21 -41 -21 -54 0 -46 -106 -237 -131 -237 -5 0 -28
-14 -51 -30 -22 -17 -52 -30 -65 -30 -13 0 -23 -6 -23 -15 0 -17 30 -35 61
-35 21 0 21 -1 6 -18 -10 -10 -17 -22 -17 -25 0 -4 -14 -26 -30 -49 -17 -22
-30 -47 -30 -55 0 -20 44 -15 63 8 25 28 30 20 18 -30 -7 -33 -6 -43 4 -48 22
-8 33 4 46 47 16 54 32 51 23 -5 -6 -43 -5 -45 19 -45 27 0 37 20 37 77 0 17
5 44 11 60 l11 28 13 -30 c7 -16 18 -42 24 -57 6 -16 16 -28 22 -28 9 0 10 22
6 79 -4 66 -2 83 14 107 10 16 19 37 19 46 0 10 16 50 35 91 30 62 41 77 75
93 25 12 47 32 58 54 10 19 30 54 45 77 15 24 27 45 27 49 0 3 6 20 14 37 35
78 76 191 76 208 0 11 4 27 9 37 5 9 27 53 49 97 67 135 68 137 79 123 25 -32
86 -175 124 -291 39 -117 42 -132 30 -160 -38 -96 -81 -359 -81 -491 0 -72
-20 -214 -47 -326 -34 -148 -98 -274 -179 -358 -52 -54 -106 -162 -134 -267
-9 -34 -101 -250 -132 -310 -13 -26 -22 -65 -25 -115 -7 -142 -9 -165 -17
-221 l-8 -56 43 -20 c39 -18 48 -19 80 -7 36 12 38 12 73 -22 33 -32 38 -34
108 -34 102 0 181 28 189 67 13 56 9 82 -16 112 l-26 30 23 3 c22 3 23 7 24
88 1 98 10 174 29 245 30 110 45 172 45 191 0 18 75 266 105 344 41 109 84
203 122 267 41 68 167 258 183 276 5 5 29 -24 55 -65 45 -68 66 -101 135 -203
15 -22 38 -60 52 -85 24 -44 25 -46 8 -86 -10 -22 -21 -56 -24 -75 -7 -37 -27
-127 -51 -231 -8 -37 -15 -80 -15 -95 0 -30 -48 -183 -101 -323 -28 -74 -33
-103 -41 -225 -8 -136 -7 -140 14 -158 12 -10 28 -15 35 -12 8 3 40 5 70 5
l56 0 -6 69 -6 70 30 -11 c16 -5 38 -22 49 -36 41 -54 56 -68 92 -85 55 -26
118 -22 193 14 l65 30 0 63 c0 64 -11 86 -42 86 -17 0 -18 6 -14 58 15 150 25
465 24 731 l-1 295 -27 55 c-15 31 -38 97 -49 146 -15 62 -46 137 -98 243 -42
83 -80 152 -85 152 -4 0 -8 7 -8 15 0 8 -4 15 -9 15 -5 0 -21 35 -35 78 -13
42 -29 91 -35 107 -42 116 -71 225 -71 260 0 45 30 197 51 255 7 19 14 41 16
49 3 10 20 -1 56 -36 29 -27 72 -65 97 -84 25 -18 47 -36 50 -39 10 -10 66
-46 102 -65 59 -30 84 -16 143 85 52 88 71 131 86 190 18 76 36 128 67 190 18
38 29 74 26 86 -4 13 4 31 22 52 49 56 74 172 41 194 -9 5 -10 45 -4 158 1 24
-3 35 -13 37 -17 4 -50 -48 -50 -80 -1 -12 -7 -35 -15 -52 l-15 -30 5 30 c17
106 18 125 3 125 -23 0 -34 -18 -53 -85 -30 -104 -46 -136 -62 -124 -7 6 -13
17 -13 23 0 16 -45 56 -64 56 -18 0 -22 -40 -6 -56 10 -10 58 -143 67 -185 4
-24 -42 -140 -73 -179 -6 -8 -19 -38 -28 -66 -9 -28 -28 -61 -41 -74 l-24 -23
-10 24 c-5 13 -26 40 -46 59 -46 44 -82 95 -129 185 -44 84 -82 113 -192 151
-81 27 -112 44 -81 44 29 0 19 15 -23 34 -47 21 -51 39 -11 62 73 43 98 223
47 333 -6 13 -29 37 -50 53 -35 25 -46 28 -120 27 -45 0 -92 -5 -106 -10z"/>
</g>
</svg>
