<?xml version="1.0" standalone="no"?>
<!DOCTYPE svg PUBLIC "-//W3C//DTD SVG 20010904//EN"
 "http://www.w3.org/TR/2001/REC-SVG-20010904/DTD/svg10.dtd">
<svg version="1.0" xmlns="http://www.w3.org/2000/svg"
 width="321.000000pt" height="600.000000pt" viewBox="0 0 321.000000 600.000000"
 preserveAspectRatio="xMidYMid meet">
<metadata>
Created by potrace 1.15, written by Peter Selinger 2001-2017
</metadata>
<g transform="translate(0.000000,600.000000) scale(0.100000,-0.100000)"
fill="#0f121f" stroke="none">
<path d="M1150 5985 c-19 -7 -43 -14 -53 -14 -33 -2 -139 -61 -177 -99 -57
-57 -84 -116 -88 -193 -5 -84 27 -159 90 -210 121 -97 152 -152 165 -289 8
-77 18 -93 53 -86 26 5 32 0 61 -44 31 -49 34 -50 81 -50 26 0 48 -3 48 -7 0
-4 -35 -41 -78 -82 -43 -42 -96 -98 -118 -124 -21 -27 -70 -69 -107 -94 -86
-57 -87 -77 -5 -81 l58 -3 -57 -110 c-53 -103 -103 -170 -127 -168 -6 0 -31
11 -56 24 -25 13 -54 28 -65 33 -41 20 -160 129 -163 149 -2 12 3 41 11 64 8
24 13 49 10 55 -2 7 -27 24 -55 38 l-51 27 -34 -33 c-26 -25 -37 -30 -49 -23
-9 6 -39 54 -68 108 -60 113 -100 159 -155 175 -47 14 -78 5 -94 -28 -7 -14
-26 -27 -44 -32 -27 -7 -34 -15 -43 -49 -6 -22 -18 -43 -26 -46 -10 -4 -14
-23 -14 -73 0 -38 3 -75 6 -84 7 -19 105 -90 187 -136 31 -17 57 -35 57 -40 0
-10 -41 -63 -57 -73 -29 -18 -5 -56 61 -94 35 -21 104 -15 158 12 59 29 48 34
154 -70 238 -233 350 -327 397 -329 27 -1 37 8 84 69 29 39 58 75 63 82 6 7
10 15 10 19 0 3 12 23 28 43 33 45 49 70 61 97 12 27 49 54 73 54 11 0 20 -10
24 -27 13 -50 -5 -433 -25 -553 -21 -119 -61 -278 -88 -342 -15 -35 -14 -38
16 -102 17 -36 31 -77 31 -91 0 -44 -30 -113 -180 -420 -125 -254 -158 -325
-194 -415 -15 -36 -31 -73 -36 -82 -6 -10 -10 -24 -10 -32 0 -8 -6 -27 -14
-43 -8 -15 -21 -53 -30 -83 -9 -30 -23 -80 -33 -110 -20 -65 -20 -164 2 -325
46 -345 64 -1039 32 -1227 -27 -155 -36 -142 98 -136 l114 5 -14 -26 c-24 -44
-48 -67 -108 -105 -31 -20 -60 -36 -62 -36 -16 0 -45 -44 -45 -68 0 -48 13
-52 156 -52 150 0 171 8 231 90 73 101 70 100 117 38 30 -40 49 -45 115 -32
41 8 50 27 61 126 5 44 11 83 14 85 2 3 62 11 133 20 70 8 129 16 131 18 5 5
-17 108 -45 205 -14 47 -31 106 -38 132 -7 25 -16 52 -20 58 -4 7 -11 26 -16
44 -8 34 -60 174 -81 220 -25 56 -136 271 -157 306 -11 19 -26 46 -32 60 -5
13 -13 27 -17 30 -4 3 -13 16 -19 30 -18 37 -59 108 -70 122 -10 12 -44 73
-110 197 l-27 50 90 178 c92 179 156 302 245 468 26 50 60 113 74 140 14 28
41 77 60 110 19 33 42 75 51 93 9 18 18 31 21 29 4 -5 -12 -260 -33 -512 -8
-99 -19 -243 -23 -320 l-9 -140 30 -80 c17 -44 39 -102 50 -130 11 -27 23 -61
28 -75 5 -14 18 -50 30 -80 26 -67 46 -122 66 -177 8 -23 28 -79 45 -125 17
-46 34 -96 39 -113 5 -16 34 -104 64 -195 57 -168 72 -218 102 -325 24 -88 44
-123 92 -163 41 -36 115 -66 139 -57 12 4 53 89 53 110 0 11 23 62 38 85 5 8
41 -42 60 -85 10 -22 21 -62 25 -90 3 -27 13 -67 21 -88 14 -32 21 -37 49 -37
37 1 66 23 86 65 18 39 41 150 41 197 0 41 -30 117 -57 146 -10 10 -24 29 -32
42 -12 21 -11 26 9 42 12 10 35 18 51 18 38 0 51 27 47 96 -3 61 -5 62 -103
105 -61 26 -58 23 -46 46 21 37 50 115 56 146 5 27 -2 42 -47 102 -29 39 -63
81 -75 95 -11 14 -54 63 -94 110 -72 85 -114 129 -179 185 -60 52 -117 128
-134 178 -24 73 -24 75 30 352 8 44 22 106 30 138 31 124 45 180 60 240 9 34
22 85 30 112 34 133 63 297 70 405 6 77 -4 153 -32 242 -4 13 4 18 38 23 24 3
67 13 96 21 l52 15 0 64 c0 57 3 67 28 90 15 14 35 28 45 31 9 3 17 10 17 15
0 6 10 9 22 7 17 -2 25 -13 31 -41 13 -55 46 -74 97 -57 41 14 100 64 100 85
0 6 31 28 68 48 38 19 84 45 103 56 19 11 43 25 54 30 11 5 37 21 58 35 21 14
40 26 43 26 7 0 117 84 138 106 22 22 20 59 -6 97 -13 18 -26 34 -30 35 -5 2
-8 10 -8 18 0 8 -3 14 -8 14 -4 0 -14 11 -22 24 -28 44 -114 139 -301 331
-308 316 -371 394 -464 579 -77 152 -87 168 -135 201 -38 27 -51 57 -30 70 6
3 10 22 10 42 l0 35 -47 -7 c-26 -4 -59 -13 -73 -20 -14 -7 -69 -15 -123 -19
-96 -7 -167 -27 -167 -46 0 -14 -73 -13 -104 2 -21 9 -24 16 -19 37 9 38 59
118 104 169 46 53 69 121 69 206 0 108 -30 178 -109 254 -63 61 -113 86 -246
123 -85 23 -280 25 -335 4z m1090 -1356 c0 -15 86 -145 156 -234 65 -85 193
-212 334 -335 137 -119 127 -108 104 -125 -24 -18 -101 -45 -130 -45 -12 0
-27 7 -34 15 -7 8 -18 15 -25 15 -7 0 -28 18 -46 40 -38 45 -54 48 -109 20
l-40 -20 2 -89 c3 -95 -8 -122 -55 -137 -25 -8 -37 10 -37 61 0 22 -7 78 -15
125 -9 47 -22 123 -30 170 -37 224 -48 290 -60 355 -8 39 -16 94 -20 123 -3
29 -9 60 -12 69 -4 11 -3 14 5 9 7 -4 12 -12 12 -17z"/>
</g>
</svg>
