<svg xmlns="http://www.w3.org/2000/svg" viewBox="0 0 548.01 218.04"><defs><style>.cls-1{fill:#171c30;}.cls-2{fill:#333;}.cls-3{fill:#e18042;}.cls-4{fill:#713c30;}.cls-5{fill:#fec45f;}.cls-6{fill:#2f2325;}</style></defs><title>car</title><g id="Layer_2" data-name="Layer 2"><g id="Layer_1-2" data-name="Layer 1"><g id="car"><path class="cls-1" d="M66,146.81s-46.72.39-47,5c-.22,3.7,31.27,7.43,31,11-.33,4.46-49.73,2.42-50,6-.22,2.93,32.4,9.6,69,12,33.5,2.19,57.62,0,58,3,.47,3.69-35.24,8.26-35,13,.35,6.93,77.21,4.31,188,13,71,5.57,72.09,9.2,105,8,81.63-3,164.22-28.62,163-45-.42-5.72-11-9.6-28-14-76.59-19.83-146.18-14.63-173-13C253.51,151.48,159.67,146,66,146.81Z"/><ellipse class="cls-2" cx="97.5" cy="126.81" rx="19.5" ry="37"/><ellipse class="cls-2" cx="281.23" cy="141.81" rx="28.23" ry="37"/><path class="cls-3" d="M54,58.81c13.28-10.18,27.48,1.58,49-6,10.46-3.68,10.27-6.55,25-18,23.67-18.4,48.83-22.94,62-26,17.44-4.05,29.91-4.38,53-5,37.39-1,33.69,4.37,65,3,5.68-.25,14.12-.79,24,3,6.44,2.47,12.81,6.53,22,16,16.81,17.33,15,23.84,24,32,8.69,7.86,30.58,9,74,11,23.29,1.06,37.88,1,48,12a33.07,33.07,0,0,1,8,16c3.82,23.32-24.6,45-43,54-2.59,1.26-15,7.16-34,9-7.61.74-34.8,3.1-63-11-26.49-13.25-25.72-26.93-62-48-13.81-8-20.93-12-31-13-25.64-2.41-31.07,17.09-59,23-35.09,7.42-74.42-13.24-93-23-12.26-6.44-19-11.68-32-13-24.31-2.46-41.29,11.78-46,6C41.75,76.82,45.82,65.09,54,58.81Z"/><path class="cls-1" d="M93.84,111.21c-7.47,5.62-8.9,36.75,2.1,40.29s12.14-13.42,11.58-22.4C106.7,116.05,101.31,105.59,93.84,111.21Z"/><path class="cls-1" d="M266.21,132.25a29.39,29.39,0,0,0-1.41,16.44c1.22,6,4.77,11.91,10.48,14.05,5,1.88,10.93.42,15.06-3s6.61-8.54,7.6-13.82a24.27,24.27,0,0,0-1.82-15.4C289.1,116.69,271.61,118.37,266.21,132.25Z"/><path class="cls-1" d="M380.43,99c-4.5,2.35-6.87,5.69-3.8,10.47,2,3.13,6.05,3.69,9.46,3.83q7.59.3,15.19.29c12.14,0,24.27-.59,36.37-1.54,9.28-.74,19.24-1.2,28.17-4,5.73-1.82,9.82-7.18,3.85-12.33-4.32-3.72-13.75-3.18-19-3.42-15-.71-30.13-.68-45.08,1.14C401.63,93.87,388,95,380.43,99Z"/><path class="cls-1" d="M417.15,124.48c-11.37.39-22.75.75-34.13.87.34,6.73,1.55,12.79,6.83,16.29,3.21,2.12,7.33,2.5,11.63,2.72,18.51.94,34.72.41,49.57-1.65,3.7-.51,7.26-1.11,10.2-2.83,7.65-4.46,8.8-13.74,8.8-18.9l-3.12.42C450.41,123.35,433.77,123.92,417.15,124.48Z"/><path class="cls-1" d="M344.72,89.4c-7.25,0-13.1,6.91-13.06,15.37s5.95,15.29,13.2,15.26,13.09-6.92,13.05-15.38S352,89.37,344.72,89.4Zm7.43,23.23c-2.2,2.46-6,3.53-8.75,2.25a8.54,8.54,0,0,0,6.78-3.87,11.2,11.2,0,0,0,1.74-7.25,10.34,10.34,0,0,0-3.12-6.65,8.06,8.06,0,0,0-7.49-1.86c2.29-2,6.25-2.1,9-.19a11.36,11.36,0,0,1,4.84,8.4A11.89,11.89,0,0,1,352.15,112.63Z"/><path class="cls-1" d="M507.14,82.65c-11-20.74-126.49-31.16-126.49-31.16s-20.95-37.1-50-44.62S207-2.42,183.52,3.7,97.85,50.58,97.85,50.58,61.74,49.1,54.66,55.15A31.07,31.07,0,0,0,48.07,64l41.27.46c8.62.17,17.74.72,26.11,4.44,4.23,1.85,7.75,4.61,11.25,6.89a31.6,31.6,0,0,0,11.18,4.87,82.78,82.78,0,0,0,12.55,1.56l12.86.9L189,84.94l51.44,3.6-51.53-2-25.77-1-12.88-.48a85.77,85.77,0,0,1-13.06-1.22,35.25,35.25,0,0,1-12.48-5c-3.76-2.3-7.16-4.76-10.9-6.24-7.55-3.09-16-3.4-24.5-3.28l-44,.9c-2.59,7.08-3.71,15-1.4,21,4.43,11.47,17.08,26.18,21.47,30.54S73,125.63,73,125.63s-2.09,23,7.81,33.88,18.1,10.31,31.77,10.25,21.32-2.83,24.57-9.41a34.22,34.22,0,0,0,3.22-13.69l105.06,7.18s2.25,25.68,19.29,32.46,49.53,6.62,57.14-4.36a56.52,56.52,0,0,0,8.92-23.56l79.32,1.28s.08,18.6,26.35,20.67,33.33-6.71,36.59-12.75a32.66,32.66,0,0,0,3.78-10.4s13.69,3.22,21.25-17.6S514.54,96.55,507.14,82.65ZM92.6,159.18c-17.25-4.84-15-47.52-3.26-55.23s20.17,6.62,21.44,24.52C111.66,140.77,109.85,164,92.6,159.18ZM70.18,106.54a27,27,0,0,1,4.74-14.38,22.67,22.67,0,0,1,5.41-5.74,26.87,26.87,0,0,1,7-3.64,24.7,24.7,0,0,1,7.82-1.29A22.65,22.65,0,0,1,102.92,83,27.54,27.54,0,0,1,115,92.14a37.47,37.47,0,0,0-12.87-6.74,23.16,23.16,0,0,0-13.74.48A24.32,24.32,0,0,0,77,93.68a39.57,39.57,0,0,0-4.76,7.48m0,0a33.1,33.1,0,0,0-2,5.38m146-41.31c-2.59,1.51-56.6,2.17-72.62-3.09S123,46.37,123,46.37,135.63,35.64,146.44,29c27-16.53,44.08-17.84,52.31-13S219.25,63.44,216.2,65.23Zm5.1,72.44-11.19-.45-22.33-1-22.33-1.08c-7.45-.38-14.9-.72-22.37-1.3,7.46-.77,14.93-1.07,22.41-1.21s15,0,22.44.31,14.94.87,22.37,1.72l11.14,1.37c3.69.61,7.4,1.12,11.07,1.87C228.76,137.93,225,137.73,221.3,137.67Zm23.13-23.07a45.27,45.27,0,0,0-2.71,17.77,34.33,34.33,0,0,1,.18-18.64A35.36,35.36,0,0,1,252.23,97.8,25.8,25.8,0,0,1,270,91a28.12,28.12,0,0,1,17.32,6.73A32.85,32.85,0,0,0,270,93.49a25.45,25.45,0,0,0-15.65,6.74A38.33,38.33,0,0,0,244.43,114.6ZM284.12,175c-21.87,2.84-31.49-23.36-26.61-46.78C261.8,107.69,280,107.47,280,107.47s6.58,3.25,14.28,13.33a123.5,123.5,0,0,1,12.68,21S304.81,172.32,284.12,175Zm203.8-58.72a52.68,52.68,0,0,1-13.81,4.07c.2,10.54-3.67,18.92-10.79,23.07-3.59,2.1-7.59,2.78-11.7,3.35a238.48,238.48,0,0,1-31.84,2.14q-8.88,0-18.51-.45c-4.69-.25-9.61-.71-13.68-3.4-6.84-4.52-8.3-12-8.68-19.69-8,0-16,0-24-.36-6.67-.28-13.48-.76-19.63-3.35s-11.63-7.7-13-14.24c-1.48-7.31,2.47-12.53,7.95-16.14A15.5,15.5,0,0,0,323.52,82c-4.27-2.83-9.48-4.09-14.9-5.24-26.33-5.58-81.77-10.16-82.14-11.09h0l-9.8-36.54s-4.17-13.52,7.71-18.9S310.29,6.55,328,12.62s41.21,39.75,41.21,39.75-44.31.47-80.39,3.91c-19.44,1.86-38.9,5-50.78,7.19,24.09,1.24,47.58,5,71.3,10.07,5.74,1.21,11.29,2.56,16,5.72a19.42,19.42,0,0,1,7.93,10.27,47.62,47.62,0,0,1,9-3.5,170.22,170.22,0,0,1,28.58-5.29c19.29-2,41-2.55,60.4-2.54s37.13-1.48,56.49,1.29a20,20,0,0,1,7.76,2.75,16.47,16.47,0,0,1,4.62,4.28,9.55,9.55,0,0,0-5.25-1.63c-6,0-10.76,5.68-10.73,12.63S489,110.08,495,110.05a9.53,9.53,0,0,0,2-.24A30.77,30.77,0,0,1,487.92,116.28Zm14.21-11c-2.15,2.38-5.81,3.41-8.5,2.14a8.25,8.25,0,0,0,6.52-3.76,10.84,10.84,0,0,0,1.67-7,10.11,10.11,0,0,0-3-6.41,7.81,7.81,0,0,0-7.23-1.83c2.21-2,6.06-2.07,8.77-.22a11,11,0,0,1,4.71,8.16A11.52,11.52,0,0,1,502.13,105.23Z"/><path class="cls-1" d="M93.84,111.21c-7.47,5.62-8.9,36.75,2.1,40.29s12.14-13.42,11.58-22.4C106.7,116.05,101.31,105.59,93.84,111.21Z"/><path class="cls-1" d="M266.21,132.25a29.39,29.39,0,0,0-1.41,16.44c1.22,6,4.77,11.91,10.48,14.05,5,1.88,10.93.42,15.06-3s6.61-8.54,7.6-13.82a24.27,24.27,0,0,0-1.82-15.4C289.1,116.69,271.61,118.37,266.21,132.25Z"/><path class="cls-1" d="M380.43,99c-4.5,2.35-6.87,5.69-3.8,10.47,2,3.13,6.05,3.69,9.46,3.83q7.59.3,15.19.29c12.14,0,24.27-.59,36.37-1.54,9.28-.74,19.24-1.2,28.17-4,5.73-1.82,9.82-7.18,3.85-12.33-4.32-3.72-13.75-3.18-19-3.42-15-.71-30.13-.68-45.08,1.14C401.63,93.87,388,95,380.43,99Z"/><path class="cls-1" d="M417.15,124.48c-11.37.39-22.75.75-34.13.87.34,6.73,1.55,12.79,6.83,16.29,3.21,2.12,7.33,2.5,11.63,2.72,18.51.94,34.72.41,49.57-1.65,3.7-.51,7.26-1.11,10.2-2.83,7.65-4.46,8.8-13.74,8.8-18.9l-3.12.42C450.41,123.35,433.77,123.92,417.15,124.48Z"/><path class="cls-1" d="M344.72,89.4c-7.25,0-13.1,6.91-13.06,15.37s5.95,15.29,13.2,15.26,13.09-6.92,13.05-15.38S352,89.37,344.72,89.4Zm7.43,23.23c-2.2,2.46-6,3.53-8.75,2.25a8.54,8.54,0,0,0,6.78-3.87,11.2,11.2,0,0,0,1.74-7.25,10.34,10.34,0,0,0-3.12-6.65,8.06,8.06,0,0,0-7.49-1.86c2.29-2,6.25-2.1,9-.19a11.36,11.36,0,0,1,4.84,8.4A11.89,11.89,0,0,1,352.15,112.63Z"/><path class="cls-1" d="M507.14,82.65c-11-20.74-126.49-31.16-126.49-31.16s-20.95-37.1-50-44.62S207-2.42,183.52,3.7,97.85,50.58,97.85,50.58,61.74,49.1,54.66,55.15A31.07,31.07,0,0,0,48.07,64l41.27.46c8.62.17,17.74.72,26.11,4.44,4.23,1.85,7.75,4.61,11.25,6.89a31.6,31.6,0,0,0,11.18,4.87,82.78,82.78,0,0,0,12.55,1.56l12.86.9L189,84.94l51.44,3.6-51.53-2-25.77-1-12.88-.48a85.77,85.77,0,0,1-13.06-1.22,35.25,35.25,0,0,1-12.48-5c-3.76-2.3-7.16-4.76-10.9-6.24-7.55-3.09-16-3.4-24.5-3.28l-44,.9c-2.59,7.08-3.71,15-1.4,21,4.43,11.47,17.08,26.18,21.47,30.54S73,125.63,73,125.63s-2.09,23,7.81,33.88,18.1,10.31,31.77,10.25,21.32-2.83,24.57-9.41a34.22,34.22,0,0,0,3.22-13.69l105.06,7.18s2.25,25.68,19.29,32.46,49.53,6.62,57.14-4.36a56.52,56.52,0,0,0,8.92-23.56l79.32,1.28s.08,18.6,26.35,20.67,33.33-6.71,36.59-12.75a32.66,32.66,0,0,0,3.78-10.4s13.69,3.22,21.25-17.6S514.54,96.55,507.14,82.65ZM92.6,159.18c-17.25-4.84-15-47.52-3.26-55.23s20.17,6.62,21.44,24.52C111.66,140.77,109.85,164,92.6,159.18ZM70.18,106.54a27,27,0,0,1,4.74-14.38,22.67,22.67,0,0,1,5.41-5.74,26.87,26.87,0,0,1,7-3.64,24.7,24.7,0,0,1,7.82-1.29A22.65,22.65,0,0,1,102.92,83,27.54,27.54,0,0,1,115,92.14a37.47,37.47,0,0,0-12.87-6.74,23.16,23.16,0,0,0-13.74.48A24.32,24.32,0,0,0,77,93.68a39.57,39.57,0,0,0-4.76,7.48m0,0a33.1,33.1,0,0,0-2,5.38m146-41.31c-2.59,1.51-56.6,2.17-72.62-3.09S123,46.37,123,46.37,135.63,35.64,146.44,29c27-16.53,44.08-17.84,52.31-13S219.25,63.44,216.2,65.23Zm5.1,72.44-11.19-.45-22.33-1-22.33-1.08c-7.45-.38-14.9-.72-22.37-1.3,7.46-.77,14.93-1.07,22.41-1.21s15,0,22.44.31,14.94.87,22.37,1.72l11.14,1.37c3.69.61,7.4,1.12,11.07,1.87C228.76,137.93,225,137.73,221.3,137.67Zm23.13-23.07a45.27,45.27,0,0,0-2.71,17.77,34.33,34.33,0,0,1,.18-18.64A35.36,35.36,0,0,1,252.23,97.8,25.8,25.8,0,0,1,270,91a28.12,28.12,0,0,1,17.32,6.73A32.85,32.85,0,0,0,270,93.49a25.45,25.45,0,0,0-15.65,6.74A38.33,38.33,0,0,0,244.43,114.6ZM284.12,175c-21.87,2.84-31.49-23.36-26.61-46.78C261.8,107.69,280,107.47,280,107.47s6.58,3.25,14.28,13.33a123.5,123.5,0,0,1,12.68,21S304.81,172.32,284.12,175Zm203.8-58.72a52.68,52.68,0,0,1-13.81,4.07c.2,10.54-3.67,18.92-10.79,23.07-3.59,2.1-7.59,2.78-11.7,3.35a238.48,238.48,0,0,1-31.84,2.14q-8.88,0-18.51-.45c-4.69-.25-9.61-.71-13.68-3.4-6.84-4.52-8.3-12-8.68-19.69-8,0-16,0-24-.36-6.67-.28-13.48-.76-19.63-3.35s-11.63-7.7-13-14.24c-1.48-7.31,2.47-12.53,7.95-16.14A15.5,15.5,0,0,0,323.52,82c-4.27-2.83-9.48-4.09-14.9-5.24-26.33-5.58-81.77-10.16-82.14-11.09h0l-9.8-36.54s-4.17-13.52,7.71-18.9S310.29,6.55,328,12.62s41.21,39.75,41.21,39.75-44.31.47-80.39,3.91c-19.44,1.86-38.9,5-50.78,7.19,24.09,1.24,47.58,5,71.3,10.07,5.74,1.21,11.29,2.56,16,5.72a19.42,19.42,0,0,1,7.93,10.27,47.62,47.62,0,0,1,9-3.5,170.22,170.22,0,0,1,28.58-5.29c19.29-2,41-2.55,60.4-2.54s37.13-1.48,56.49,1.29a20,20,0,0,1,7.76,2.75,16.47,16.47,0,0,1,4.62,4.28,9.55,9.55,0,0,0-5.25-1.63c-6,0-10.76,5.68-10.73,12.63S489,110.08,495,110.05a9.53,9.53,0,0,0,2-.24A30.77,30.77,0,0,1,487.92,116.28Zm14.21-11c-2.15,2.38-5.81,3.41-8.5,2.14a8.25,8.25,0,0,0,6.52-3.76,10.84,10.84,0,0,0,1.67-7,10.11,10.11,0,0,0-3-6.41,7.81,7.81,0,0,0-7.23-1.83c2.21-2,6.06-2.07,8.77-.22a11,11,0,0,1,4.71,8.16A11.52,11.52,0,0,1,502.13,105.23Z"/><path class="cls-4" d="M48,72.81a27,27,0,0,0-2,12c.17,2.33.89,7.74,11,22,2.52,3.56,6.18,8.44,11,14-.68-2.91-3.22-15.21,4-27,1.57-2.57,6.26-10.22,15-13,14.19-4.52,28.29,7.24,34,12,15.8,13.18,20.48,31.09,22,39a414.6,414.6,0,0,1,96,4c-3.82-17.66,1.91-34.63,14-42,14.18-8.65,31.41-.61,37,2,15.39,7.19,23.3,20.27,31,33a128.55,128.55,0,0,1,12,26c6.31.33,15.66.75,27,1,20.42.45,23.62-.19,39,0,19.13.23,37.75-.18,75-1,2.44-.05,8.12-.25,13-4a20,20,0,0,0,6-8c6.19-13.43,12.81-33.38,14-37a49.87,49.87,0,0,1-30,17c-.36,5.2-1.87,14.64-9,21-5.58,5-11.62,5.42-29,6-43.71,1.47-49.77.18-55-5-2.64-2.62-6.47-7.62-8-17-16.61,2.62-38.32,3.16-51-10-4.53-4.7-3.52-6.59-9-13-13.11-15.32-33.81-21.62-51-21-10.35.37-9.77,3.46-25,7-27.7,6.44-32.77-3.88-67-1a139.52,139.52,0,0,1-30-1,48.18,48.18,0,0,1-12-3c-7.88-3.2-10.21-6.85-16-10-4.87-2.65-9.5-4.09-21-4C80.52,71.91,65.18,72.15,48,72.81Z"/><path class="cls-4" d="M144,136.81c-.67,2.33-1.33,4.67-2,7l103,7c-.67-3.33-1.33-6.67-2-10Z"/><ellipse class="cls-5" cx="98" cy="131.31" rx="7" ry="18.5"/><ellipse class="cls-5" cx="281.5" cy="142.31" rx="12.5" ry="17.5"/><path class="cls-5" d="M226,17.81c-6.62,8.83-3.88,26.65,6,35,12,10.18,26.41-.7,67-3,36-2,54.17,4.87,57-2,2.93-7.12-13.21-22.52-30-30-8-3.55-13.77-4.28-52-5S229.91,12.6,226,17.81Z"/><path class="cls-5" d="M189,17.81c-6.22-1.79-14.9,2.45-32,11-21.72,10.86-23.07,14.69-23,17,.14,4.52,5.85,7.69,10,10,9.75,5.42,15.93,3.76,41,5,14.24.7,18.83,1.56,22-2,4.14-4.65,2.11-12.63,1-17C207.12,38.36,202.33,21.64,189,17.81Z"/><path class="cls-2" d="M481,99.81a18.37,18.37,0,0,1,7-18,587,587,0,0,0-137,6,17.59,17.59,0,0,1,1,33,385.32,385.32,0,0,0,79,1,384.67,384.67,0,0,0,59-10C489,111.25,482.58,107.53,481,99.81Zm-11,8.72c-9.82,3.14-20.78,3.65-31,4.45-13.31,1-26.66,1.7-40,1.7-5.56,0-11.14-.09-16.7-.32-3.75-.15-8.19-.76-10.41-4.21-3.37-5.25-.77-8.93,4.19-11.52,8.33-4.36,23.31-5.64,27.68-6.17,16.45-2,33.06-2,49.59-1.25,5.76.27,16.13-.33,20.88,3.76C480.81,100.64,476.31,106.53,470,108.53Z"/><path class="cls-3" d="M379,103.81a237.37,237.37,0,0,1,88-6"/><path class="cls-2" d="M379,103.81a202.75,202.75,0,0,1,21.63-5c7.3-1.27,14.67-2.11,22.06-2.66s14.8-.63,22.21-.36q5.55.21,11.08.68c3.68.35,7.36.75,11,1.3-3.68-.32-7.37-.63-11.06-.81s-7.37-.35-11.06-.4c-7.38-.11-14.77,0-22.13.59s-14.7,1.31-22,2.42S386.21,102.15,379,103.81Z"/><path class="cls-3" d="M378.5,106.31q21.58-2.4,45-4c15.55-1,30.57-1.68,45-2"/><path class="cls-2" d="M378.5,106.31c7.45-1,14.93-1.88,22.41-2.63s15-1.32,22.49-1.86,15-.89,22.54-1.14l11.28-.3c3.76,0,7.52-.1,11.28-.07L446,101.45c-7.5.41-15,.82-22.5,1.36s-15,1-22.49,1.64Z"/><path class="cls-3" d="M381.5,109.31c13.18.3,27.57.07,43-1s29.92-2.86,43-5"/><path class="cls-2" d="M381.5,109.31c7.2,0,14.39-.14,21.57-.39s14.37-.58,21.54-1.12,14.32-1.13,21.47-1.88c3.58-.37,7.15-.79,10.72-1.23s7.13-.91,10.7-1.38c-3.53.69-7.08,1.28-10.63,1.86s-7.13,1-10.7,1.51c-7.14.91-14.31,1.58-21.5,2.12s-14.38.8-21.58.89S388.69,109.68,381.5,109.31Z"/><path class="cls-3" d="M385.5,127.31a376.84,376.84,0,0,0,44,0c13.38-.78,25.76-2.22,37-4"/><path class="cls-2" d="M385.5,127.31c6.77.19,13.54.3,20.3.25s13.53-.19,20.28-.57,13.51-.81,20.24-1.43q5.06-.45,10.1-1c3.36-.36,6.72-.79,10.08-1.21-3.33.64-6.67,1.17-10,1.69s-6.71.93-10.08,1.33c-6.73.77-13.5,1.29-20.27,1.66s-13.55.45-20.33.34c-3.39-.06-6.78-.16-10.16-.32S388.87,127.62,385.5,127.31Z"/><path class="cls-3" d="M387.5,132.31a276.93,276.93,0,0,0,43,0,276.69,276.69,0,0,0,35-5"/><path class="cls-2" d="M387.5,132.31c6.53.3,13.06.48,19.59.45s13.05-.21,19.56-.68,13-1,19.48-1.83q4.86-.58,9.7-1.35c3.23-.47,6.45-1,9.67-1.59-3.18.78-6.38,1.44-9.59,2.07s-6.44,1.15-9.68,1.63c-6.47,1-13,1.61-19.52,2.07s-13.08.56-19.63.44S394,133,387.5,132.31Z"/><path class="cls-3" d="M391.5,137.39a262.88,262.88,0,0,0,40.65,0,261.31,261.31,0,0,0,33.09-4.73"/><path class="cls-2" d="M391.5,137.39c6.18.27,12.35.44,18.52.4s12.33-.21,18.48-.65,12.3-1,18.42-1.72q4.59-.55,9.17-1.27c3.06-.44,6.1-1,9.15-1.49-3,.74-6,1.37-9.07,2s-6.09,1.09-9.14,1.55c-6.12.91-12.29,1.53-18.46,2s-12.37.53-18.56.41S397.64,138.07,391.5,137.39Z"/><path class="cls-3" d="M392.5,141.83a306,306,0,0,0,37,0,300.5,300.5,0,0,0,30.14-3.36"/><path class="cls-2" d="M392.5,141.83c5.62.13,11.23.23,16.84.17s11.22-.16,16.82-.49,11.2-.67,16.78-1.18q4.2-.37,8.38-.87c2.79-.29,5.57-.65,8.36-1-2.75.56-5.52,1-8.3,1.48s-5.56.8-8.36,1.14c-5.58.67-11.19,1.1-16.81,1.42s-11.25.37-16.87.26S398.1,142.38,392.5,141.83Z"/><path class="cls-3" d="M386,98.81q.5,6,1,12"/><path class="cls-2" d="M386,98.81a36.39,36.39,0,0,1,1,12,36.39,36.39,0,0,1-1-12Z"/><path class="cls-3" d="M390.5,97.31q.5,7,1,14"/><path class="cls-2" d="M390.5,97.31a49.35,49.35,0,0,1,1,14,49.35,49.35,0,0,1-1-14Z"/><line class="cls-3" x1="396.5" y1="97.31" x2="396.5" y2="111.31"/><path class="cls-2" d="M396.5,97.31a43.38,43.38,0,0,1,.5,7,42.27,42.27,0,0,1-.5,7,43.38,43.38,0,0,1-.5-7A44.55,44.55,0,0,1,396.5,97.31Z"/><path class="cls-3" d="M402.5,96.42q.62,7.31,1.22,14.61"/><path class="cls-2" d="M402.5,96.42A53.77,53.77,0,0,1,403.72,111a47.37,47.37,0,0,1-1.11-7.26A48.7,48.7,0,0,1,402.5,96.42Z"/><path class="cls-3" d="M408,94.6q.6,8.52,1.21,17"/><path class="cls-2" d="M408,94.6a64.09,64.09,0,0,1,1.1,8.48,62.65,62.65,0,0,1,.11,8.56,64.46,64.46,0,0,1-1.1-8.49A64.17,64.17,0,0,1,408,94.6Z"/><line class="cls-3" x1="415.28" y1="94.6" x2="415.28" y2="111.64"/><path class="cls-2" d="M415.28,94.6a65.8,65.8,0,0,1,.5,8.52,62.44,62.44,0,0,1-.5,8.52,62.44,62.44,0,0,1-.5-8.52A65.8,65.8,0,0,1,415.28,94.6Z"/><path class="cls-3" d="M464.91,95.23q0,6-.05,12"/><path class="cls-2" d="M464.91,95.23a31.39,31.39,0,0,1,.47,6,32.14,32.14,0,0,1-.52,6,32.23,32.23,0,0,1-.48-6A33,33,0,0,1,464.91,95.23Z"/><path class="cls-3" d="M460.31,94.09q0,7,.1,14"/><path class="cls-2" d="M460.31,94.09a44.65,44.65,0,0,1,.55,7,43.57,43.57,0,0,1-.45,7,49.46,49.46,0,0,1-.1-14Z"/><line class="cls-3" x1="454.32" y1="94.56" x2="455.43" y2="108.52"/><path class="cls-2" d="M454.32,94.56a49.61,49.61,0,0,1,1.11,14,43.43,43.43,0,0,1-1.05-6.94A44.44,44.44,0,0,1,454.32,94.56Z"/><path class="cls-3" d="M448.27,94.15l-.06,14.65"/><path class="cls-2" d="M448.27,94.15a46.28,46.28,0,0,1,.47,7.33,46.23,46.23,0,0,1-.53,7.32,47.41,47.41,0,0,1-.47-7.33A48.72,48.72,0,0,1,448.27,94.15Z"/><path class="cls-3" d="M442.67,92.76q.06,8.53.13,17.08"/><path class="cls-2" d="M442.67,92.76a64.35,64.35,0,0,1,.56,8.54,64.37,64.37,0,0,1-.43,8.54,64.36,64.36,0,0,1-.57-8.54A66.13,66.13,0,0,1,442.67,92.76Z"/><line class="cls-3" x1="435.39" y1="93.33" x2="436.73" y2="110.32"/><path class="cls-2" d="M435.39,93.33a72.69,72.69,0,0,1,1.34,17,63.82,63.82,0,0,1-1.17-8.45A65.71,65.71,0,0,1,435.39,93.33Z"/><path class="cls-3" d="M432.27,95.15l-.06,14.65"/><path class="cls-2" d="M432.27,95.15a46.28,46.28,0,0,1,.47,7.33,46.23,46.23,0,0,1-.53,7.32,47.41,47.41,0,0,1-.47-7.33A48.72,48.72,0,0,1,432.27,95.15Z"/><path class="cls-3" d="M426.67,93.76q.06,8.53.13,17.08"/><path class="cls-2" d="M426.67,93.76a64.35,64.35,0,0,1,.56,8.54,64.37,64.37,0,0,1-.43,8.54,64.36,64.36,0,0,1-.57-8.54A66.13,66.13,0,0,1,426.67,93.76Z"/><line class="cls-3" x1="419.39" y1="94.33" x2="420.73" y2="111.32"/><path class="cls-2" d="M419.39,94.33a72.69,72.69,0,0,1,1.34,17,63.82,63.82,0,0,1-1.17-8.45A65.71,65.71,0,0,1,419.39,94.33Z"/><path class="cls-6" d="M141,107.81c-.48,1,.35,3.64,2,9,1.43,4.64,2.9,8.39,4,11a392.5,392.5,0,0,1,87,3,26.19,26.19,0,0,1-1-9c.49-7.32,3.93-9.79,3-12-2.21-5.24-23.52,3.76-49,3C162.55,112.08,143.61,102.62,141,107.81Z"/><path class="cls-6" d="M325,129.81c-.82,1.17,3.56,4.34,7,12a40.12,40.12,0,0,1,3,10l50,1a41.76,41.76,0,0,1-8-8c-3-3.95-3-5.51-5-7-4.54-3.46-10.29.33-18,1C338.41,140.16,326.45,127.74,325,129.81Z"/></g></g></g></svg>