<?xml version="1.0" standalone="no"?>
<!DOCTYPE svg PUBLIC "-//W3C//DTD SVG 20010904//EN"
 "http://www.w3.org/TR/2001/REC-SVG-20010904/DTD/svg10.dtd">
<svg version="1.0" xmlns="http://www.w3.org/2000/svg"
 width="1024.000000pt" height="1024.000000pt" viewBox="0 0 1024.000000 1024.000000"
 preserveAspectRatio="xMidYMid meet">
<metadata>
Created by potrace 1.15, written by Peter Selinger 2001-2017
</metadata>
<g transform="translate(0.000000,1024.000000) scale(0.100000,-0.100000)"
fill="#0f121f" stroke="none">
<path d="M5075 9658 c-22 -5 -74 -9 -116 -8 -69 1 -83 -3 -138 -32 -96 -52
-148 -101 -180 -171 -15 -34 -31 -75 -35 -91 -4 -15 -16 -40 -26 -55 -22 -29
-60 -134 -60 -164 0 -11 -10 -34 -23 -51 -38 -50 -50 -91 -42 -138 4 -24 7
-66 7 -95 0 -45 -5 -58 -41 -105 -23 -29 -50 -62 -61 -73 -33 -34 -53 -93 -41
-125 11 -34 -7 -112 -45 -195 -31 -69 -31 -112 1 -155 14 -19 25 -43 25 -54 0
-20 -46 -76 -62 -76 -20 0 -73 -49 -108 -100 -58 -86 -148 -264 -196 -387 -52
-134 -78 -192 -240 -520 -68 -138 -124 -258 -124 -266 0 -7 -38 -90 -84 -183
-46 -93 -96 -200 -111 -239 -16 -38 -45 -101 -66 -138 -22 -38 -39 -71 -39
-73 0 -2 -11 -27 -24 -56 -13 -29 -36 -84 -51 -123 -40 -103 -122 -240 -167
-281 -82 -74 -144 -87 -278 -58 -41 9 -119 16 -173 15 -83 0 -106 -4 -156 -27
-139 -62 -157 -161 -31 -170 33 -2 64 2 82 10 31 16 78 7 131 -25 l29 -17 -36
-12 c-60 -19 -84 -95 -38 -119 40 -21 135 -28 229 -16 l62 7 22 -44 c56 -110
144 -222 304 -384 115 -117 124 -124 161 -124 52 0 67 12 69 52 5 76 153 635
221 833 30 88 56 167 58 176 12 50 111 323 136 374 84 175 165 339 202 411 24
44 58 112 77 150 19 38 63 111 99 163 l66 95 12 -65 c6 -35 24 -104 39 -154
l28 -90 -12 -150 c-6 -82 -11 -202 -11 -265 0 -115 -6 -153 -69 -480 -16 -85
-33 -180 -36 -210 -4 -30 -22 -149 -40 -265 -19 -115 -41 -257 -49 -315 -9
-58 -24 -161 -35 -230 -10 -69 -22 -174 -26 -235 -3 -60 -8 -133 -11 -161 -8
-71 13 -95 87 -100 30 -2 99 -11 154 -20 55 -8 115 -17 133 -20 17 -3 32 -10
32 -17 0 -7 21 -61 46 -122 25 -60 61 -147 80 -192 32 -78 60 -168 91 -298 7
-33 25 -96 39 -139 25 -81 74 -341 74 -395 0 -25 -6 -31 -34 -41 -46 -15 -77
-51 -92 -109 -10 -40 -11 -103 -2 -308 5 -142 9 -262 8 -268 -1 -5 -5 -102
-10 -215 -9 -227 -23 -375 -45 -481 -8 -39 -15 -83 -15 -98 0 -15 -5 -32 -10
-37 -6 -6 -22 -78 -36 -160 -24 -149 -35 -193 -80 -334 -35 -109 -33 -198 6
-284 16 -37 34 -84 40 -105 6 -21 26 -65 45 -97 19 -32 35 -69 35 -83 0 -18 3
-22 9 -13 6 10 14 4 29 -22 35 -60 112 -74 173 -33 32 21 45 41 82 127 l16 35
0 -33 c2 -71 62 -150 141 -184 39 -17 51 -18 85 -8 68 20 85 29 130 67 47 39
80 106 105 212 17 73 7 232 -24 389 -29 144 -28 217 9 442 13 80 31 199 40
265 9 66 34 181 55 255 21 74 48 171 60 215 50 188 83 306 111 393 23 73 29
111 29 180 0 97 -16 136 -67 168 -15 10 -29 19 -31 20 -2 1 4 39 12 85 9 46
25 173 36 282 11 110 24 215 29 235 6 21 24 123 41 227 28 171 39 224 71 346
l9 37 98 5 c158 10 202 20 230 52 23 28 24 34 19 120 -3 49 -16 153 -27 230
-12 77 -25 178 -30 225 -23 219 -42 335 -90 545 -11 50 -29 131 -40 182 -11
51 -26 109 -35 129 -8 20 -15 50 -15 66 0 16 -10 50 -22 76 -12 26 -31 81 -44
122 -12 41 -47 136 -77 210 -148 361 -149 366 -138 418 5 26 14 58 19 72 9 24
11 22 39 -35 90 -178 159 -367 183 -500 7 -38 32 -128 55 -200 66 -204 111
-358 151 -514 20 -79 51 -183 69 -230 21 -55 35 -113 39 -161 7 -89 62 -377
83 -439 17 -47 55 -71 111 -71 42 0 162 63 222 117 54 48 133 144 185 223 16
25 37 54 46 65 10 11 29 43 44 72 14 29 30 55 35 58 5 3 28 -8 51 -25 55 -39
80 -38 130 7 47 43 79 100 79 143 0 16 2 30 5 30 2 0 21 -11 41 -25 50 -34
112 -34 143 -1 29 31 24 55 -21 114 -27 35 -44 46 -93 61 -106 32 -145 34
-246 10 -95 -22 -158 -22 -222 2 -38 14 -119 106 -155 175 -42 81 -44 86 -83
164 -20 41 -46 106 -58 145 -13 38 -28 80 -36 95 -38 74 -151 407 -158 470 -4
25 -21 95 -40 155 -47 152 -85 293 -167 630 -39 160 -80 326 -92 370 -11 44
-24 96 -28 116 -8 42 -13 51 -59 106 -19 23 -52 49 -73 58 -51 20 -65 52 -44
94 9 17 20 31 25 31 11 0 20 23 31 79 10 52 -7 107 -45 153 -26 30 -25 38 5
73 33 38 42 86 29 166 -12 83 -67 199 -106 224 -24 16 -32 58 -13 70 14 9 13
164 -2 206 -6 19 -19 46 -29 60 -11 15 -26 54 -35 88 -14 55 -14 63 0 83 21
30 20 66 -4 111 -11 20 -20 42 -20 48 0 7 -24 55 -52 108 -71 129 -199 264
-272 286 -55 17 -110 18 -171 3z"/>
</g>
</svg>
