<?xml version="1.0" standalone="no"?>
<!DOCTYPE svg PUBLIC "-//W3C//DTD SVG 20010904//EN"
 "http://www.w3.org/TR/2001/REC-SVG-20010904/DTD/svg10.dtd">
<svg version="1.0" xmlns="http://www.w3.org/2000/svg"
 width="1024.000000pt" height="1024.000000pt" viewBox="0 0 1024.000000 1024.000000"
 preserveAspectRatio="xMidYMid meet">
<metadata>
Created by potrace 1.15, written by Peter Selinger 2001-2017
</metadata>
<g transform="translate(0.000000,1024.000000) scale(0.100000,-0.100000)"
fill="#000000" stroke="none">
<path d="M5100 9889 c-59 -32 -135 -113 -282 -299 -44 -56 -170 -270 -206
-350 -45 -99 -82 -189 -82 -197 0 -5 -15 -31 -34 -57 -40 -57 -79 -80 -107
-66 -13 8 -29 6 -55 -5 -35 -14 -36 -17 -31 -51 8 -48 30 -80 61 -88 14 -3 37
-11 52 -16 l27 -11 -50 -52 c-63 -65 -77 -90 -63 -116 17 -33 45 -34 89 -6 26
18 46 25 60 20 25 -8 26 -23 7 -70 -12 -27 -28 -40 -88 -68 -40 -19 -82 -38
-93 -41 -45 -13 -170 -212 -261 -417 -6 -13 -38 -72 -72 -130 -34 -59 -62
-110 -62 -113 0 -4 -11 -23 -24 -44 -13 -21 -63 -114 -111 -207 -47 -94 -96
-186 -107 -205 -99 -165 -114 -231 -128 -530 -5 -135 -13 -272 -16 -305 -7
-70 -56 -347 -89 -505 -8 -36 -16 -81 -19 -100 -4 -19 -8 -46 -11 -60 -36
-191 -45 -251 -55 -340 -6 -58 -18 -133 -26 -168 -19 -86 -19 -158 2 -170 9
-5 48 -7 88 -4 l72 4 43 -45 c61 -63 115 -80 261 -80 111 0 275 26 347 54 15
6 43 11 61 10 18 0 61 10 95 23 34 13 94 33 132 46 39 12 96 35 128 51 31 16
57 26 57 22 0 -5 -11 -46 -24 -93 -51 -182 -77 -266 -91 -291 -16 -29 -39 -94
-55 -159 -6 -25 -17 -61 -24 -80 -7 -19 -26 -89 -41 -155 -15 -66 -38 -156
-50 -200 -13 -44 -38 -141 -55 -215 -18 -74 -40 -166 -50 -205 -21 -77 -64
-381 -61 -431 1 -17 -10 -69 -25 -115 -14 -46 -35 -131 -45 -188 -11 -57 -25
-112 -33 -120 -23 -26 -114 -225 -157 -344 -22 -62 -43 -119 -48 -127 -4 -8
-18 -49 -30 -90 -28 -95 -72 -222 -81 -235 -4 -5 -17 -41 -30 -80 -12 -38 -36
-104 -53 -145 -79 -198 -217 -581 -217 -606 0 -6 -22 -80 -50 -165 -35 -108
-50 -170 -50 -209 0 -36 -12 -88 -37 -160 -30 -88 -47 -118 -103 -190 -72 -90
-126 -140 -227 -209 -65 -44 -103 -84 -103 -107 0 -43 63 -104 109 -104 9 0
22 -5 28 -11 20 -20 248 -23 343 -5 47 10 95 18 107 20 13 2 29 9 37 15 24 20
76 136 115 259 27 82 44 120 60 131 l23 15 -5 -134 c-4 -120 -2 -135 15 -152
40 -40 74 -9 84 77 4 33 12 74 19 90 8 17 16 44 18 60 3 17 18 68 35 115 23
67 33 85 48 84 11 0 78 -10 149 -22 72 -11 164 -25 205 -31 41 -5 118 -17 170
-26 118 -21 346 -25 377 -7 50 28 52 45 53 398 0 181 5 460 11 619 7 179 8
440 4 680 -10 527 -6 821 10 862 7 17 23 69 35 115 24 94 45 159 65 203 8 17
25 62 37 100 13 39 31 81 40 95 9 14 28 63 42 110 13 47 36 121 50 165 15 44
31 98 37 120 6 22 46 112 89 200 43 88 90 192 104 230 15 39 36 90 47 115 27
57 158 260 169 260 5 0 16 -21 25 -47 10 -27 21 -57 26 -68 17 -41 41 -139 45
-184 2 -25 7 -84 11 -131 5 -47 5 -107 1 -135 -27 -208 -29 -465 -3 -634 42
-270 44 -338 16 -430 -11 -35 -19 -67 -16 -70 2 -3 -1 -26 -6 -51 -5 -25 -12
-65 -15 -90 -3 -25 -17 -90 -31 -145 -14 -55 -29 -131 -33 -170 -4 -38 -12
-90 -18 -115 -19 -78 -71 -451 -77 -552 -10 -182 -35 -406 -55 -513 -12 -64
-57 -508 -66 -656 -4 -72 -3 -79 22 -108 14 -18 41 -38 59 -45 20 -9 42 -31
60 -61 l27 -48 -27 -89 c-24 -79 -26 -95 -17 -141 6 -29 8 -63 6 -77 -8 -41
30 -88 94 -118 46 -21 76 -27 152 -30 162 -7 228 25 248 120 13 61 6 109 -28
190 l-22 55 27 41 c27 40 28 41 52 25 21 -14 49 -15 212 -10 103 4 195 9 204
12 34 14 37 54 37 520 0 253 1 633 3 845 3 548 -8 799 -43 1005 -28 163 -53
336 -52 370 0 17 1 68 2 115 1 47 -3 107 -9 134 -21 88 6 332 79 716 44 238
64 352 86 504 28 197 113 323 355 527 190 161 296 271 345 359 10 19 31 52 47
74 15 21 27 43 27 48 0 6 9 21 20 35 11 14 20 36 20 48 0 12 11 48 25 79 14
31 30 76 35 99 16 62 23 536 11 737 -6 111 -6 179 0 185 15 15 148 24 179 12
28 -11 61 -2 139 36 22 11 78 124 66 135 -2 2 2 17 10 33 33 62 4 170 -54 207
-14 9 -28 17 -30 19 -3 2 9 18 26 36 31 32 47 84 36 113 -9 25 -49 35 -81 21
-37 -16 -87 -50 -136 -93 -208 -179 -211 -181 -320 -194 -45 -5 -77 -15 -95
-29 -69 -55 -130 -90 -166 -96 -22 -3 -58 -13 -80 -22 -22 -8 -49 -19 -60 -23
-11 -4 -54 -24 -95 -43 -45 -22 -103 -40 -141 -46 -89 -12 -215 -53 -277 -90
l-51 -30 -15 24 c-15 23 -85 257 -105 350 -31 151 -51 284 -60 395 -6 69 -16
190 -22 270 -16 198 -24 223 -98 301 -57 59 -62 67 -57 99 20 126 21 117 -13
155 l-31 36 2 127 c2 121 -13 295 -34 392 -5 25 -14 70 -19 100 -12 67 -63
218 -95 281 -80 158 -242 306 -354 322 -19 3 -47 10 -63 16 -48 19 -157 41
-195 40 -20 -1 -53 -10 -72 -20z m-674 -2649 c32 -34 63 -76 70 -95 6 -19 25
-56 41 -82 49 -77 83 -175 83 -236 0 -36 6 -62 18 -78 29 -39 39 -70 56 -164
16 -89 25 -299 14 -311 -4 -3 -15 -1 -26 5 -12 6 -31 11 -44 11 -69 0 -185 95
-313 255 -22 28 -43 51 -47 53 -18 8 -133 161 -150 199 l-19 43 30 90 c35 103
68 171 118 244 30 43 102 126 109 126 2 0 29 -27 60 -60z"/>
</g>
</svg>
