<?xml version="1.0" standalone="no"?>
<!DOCTYPE svg PUBLIC "-//W3C//DTD SVG 20010904//EN"
 "http://www.w3.org/TR/2001/REC-SVG-20010904/DTD/svg10.dtd">
<svg version="1.0" xmlns="http://www.w3.org/2000/svg"
 width="1536.000000pt" height="2400.000000pt" viewBox="0 0 1536.000000 2400.000000"
 preserveAspectRatio="xMidYMid meet">
<metadata>
Created by potrace 1.15, written by Peter Selinger 2001-2017
</metadata>
<g transform="translate(0.000000,2400.000000) scale(0.100000,-0.100000)"
fill="#0f121f" stroke="none">
<path d="M6762 23989 c-110 -17 -290 -68 -405 -115 -290 -118 -562 -303 -831
-564 -369 -358 -675 -826 -871 -1330 -74 -190 -126 -266 -333 -486 -92 -97
-207 -222 -255 -278 -374 -430 -488 -862 -372 -1411 17 -84 44 -160 113 -320
208 -484 333 -870 517 -1595 l82 -326 -92 -219 c-209 -500 -382 -836 -600
-1165 -215 -326 -372 -509 -695 -815 -58 -55 -186 -187 -284 -294 -327 -352
-516 -494 -746 -557 -60 -17 -206 -22 -340 -12 -34 3 -34 2 -48 -52 -8 -34
-14 -120 -15 -223 l-2 -167 -92 -47 c-80 -40 -101 -47 -155 -47 -35 0 -86 8
-115 17 -72 25 -194 100 -282 175 -104 87 -291 211 -402 266 -120 60 -198 75
-307 59 -145 -22 -232 -62 -232 -107 0 -32 39 -50 179 -85 200 -49 431 -174
504 -273 27 -36 24 -96 -9 -167 -32 -71 -70 -111 -104 -111 -14 0 -66 14 -116
30 -96 33 -174 41 -198 20 -11 -8 -16 -30 -16 -66 0 -45 5 -59 31 -89 93 -105
405 -179 754 -179 207 1 257 7 440 60 66 19 123 34 127 34 4 0 8 -8 8 -19 0
-10 11 -62 25 -116 64 -253 212 -440 429 -545 71 -34 203 -77 211 -68 2 2 73
107 157 233 506 755 1029 1434 1575 2045 163 182 556 604 586 629 14 11 15 6
11 -46 -57 -658 -192 -1242 -465 -2010 -80 -226 -196 -528 -404 -1053 -309
-781 -466 -1226 -600 -1707 -85 -302 -202 -808 -193 -834 2 -5 59 100 127 233
287 561 497 958 1185 2243 540 1006 784 1532 962 2072 199 602 300 1231 320
2003 l6 235 39 70 c93 172 199 438 199 501 0 58 20 13 63 -143 188 -675 287
-1424 287 -2176 0 -299 -15 -565 -37 -667 -22 -101 -23 -206 -1 -246 24 -44
59 -53 177 -47 57 3 101 2 101 -3 0 -5 -29 -78 -65 -163 -442 -1044 -575
-1823 -486 -2841 25 -283 39 -640 46 -1215 9 -708 20 -795 186 -1489 149 -624
196 -893 230 -1336 21 -280 21 -1532 0 -3290 -12 -938 -21 -1768 -21 -1845 l0
-141 38 -13 c20 -7 206 -80 413 -163 l376 -149 -69 -182 c-202 -531 -253 -744
-214 -897 36 -140 118 -231 281 -310 158 -78 242 -95 470 -95 259 0 319 16
533 143 96 57 112 70 112 92 0 14 -4 131 -10 260 -44 1067 -31 1272 80 1327
14 6 68 32 120 57 108 52 176 103 214 161 42 63 36 85 -60 241 -206 334 -241
440 -274 839 -46 553 -92 1027 -146 1480 -32 273 -50 409 -143 1045 -60 410
-61 487 -21 1095 36 523 68 882 102 1103 15 105 3 198 -46 341 -65 189 -71
239 -70 581 1 215 8 379 22 555 29 338 135 1479 138 1484 8 10 97 -76 271
-260 382 -406 618 -708 836 -1070 136 -226 198 -348 577 -1139 240 -501 417
-910 463 -1069 50 -177 6 -526 -139 -1105 -105 -420 -170 -632 -481 -1571
-405 -1226 -542 -1698 -628 -2168 -30 -163 -30 -171 -8 -192 24 -24 67 -13
215 56 127 59 174 71 184 45 8 -20 -33 -249 -71 -403 -18 -72 -58 -210 -89
-306 -31 -96 -56 -191 -56 -210 l0 -35 63 -7 c34 -4 113 -20 175 -36 221 -57
244 -42 263 172 9 113 35 212 69 267 40 64 171 93 338 74 135 -16 159 -41 322
-332 124 -221 205 -349 265 -422 l50 -61 240 -3 c132 -1 308 -7 390 -13 83 -6
240 -11 351 -11 l200 0 32 32 c37 39 62 95 62 141 0 100 -77 227 -209 346 -91
82 -105 102 -97 136 11 45 71 58 271 60 186 1 209 5 225 35 12 23 -13 174 -80
475 -137 618 -200 1006 -244 1495 -46 504 -56 838 -66 2235 -9 1220 -15 1440
-46 1710 -46 417 -155 757 -564 1777 -152 378 -174 427 -237 520 -429 633
-1183 2188 -1568 3233 -163 442 -265 820 -265 982 l0 42 33 -14 c73 -30 467
-63 467 -39 0 7 -108 311 -239 677 -132 366 -256 716 -275 778 -90 282 -121
648 -75 872 11 56 61 269 110 472 163 672 219 945 219 1071 0 62 1 64 20 52
35 -22 157 -170 476 -578 170 -217 383 -487 473 -600 1118 -1398 2035 -2274
2771 -2649 115 -59 166 -78 342 -127 115 -31 210 -55 213 -52 12 12 91 215
146 378 54 159 61 175 82 174 12 -1 99 -10 192 -19 194 -20 330 -16 515 16
259 44 497 134 573 218 32 36 37 48 37 91 0 56 -24 90 -62 90 -25 -1 -117 -32
-215 -74 -59 -25 -65 -26 -92 -11 -56 29 -120 138 -121 206 0 107 259 302 510
384 117 38 152 60 148 94 -4 34 -37 49 -147 68 -105 18 -205 13 -282 -16 -128
-48 -376 -242 -549 -430 -166 -181 -206 -188 -328 -64 -64 65 -73 78 -68 101
14 59 19 377 6 435 -29 141 -119 174 -402 147 -88 -9 -121 -8 -185 6 -116 23
-263 85 -398 165 -111 66 -177 112 -539 374 -158 114 -252 169 -365 212 -264
102 -453 244 -817 615 -306 313 -581 634 -1246 1458 -427 528 -602 734 -680
802 -206 176 -436 271 -723 298 -66 6 -271 14 -456 18 -300 7 -339 10 -364 26
-24 16 -27 23 -22 55 7 53 130 324 217 479 41 73 89 159 107 190 33 58 67 157
78 224 5 32 12 40 48 56 60 27 112 75 139 130 47 97 19 287 -70 470 -27 56
-58 99 -114 157 l-78 79 -6 76 c-9 115 11 273 42 329 26 49 87 117 189 212
152 141 169 179 135 293 -33 107 -126 338 -183 451 -251 502 -580 800 -1005
912 -84 22 -122 26 -282 29 -102 1 -213 -2 -248 -7z m1452 -2479 c56 -59 87
-125 111 -233 23 -103 18 -238 -11 -288 -18 -30 -76 -79 -94 -79 -4 0 -10 60
-13 133 -6 111 -26 289 -53 475 -4 25 -2 42 3 42 6 0 31 -23 57 -50z m-2458
-888 c47 -68 118 -131 223 -200 l83 -55 -6 -71 c-13 -131 -65 -206 -144 -206
-42 0 -125 45 -187 102 -116 105 -175 316 -130 464 20 66 26 73 71 89 l39 13
7 -41 c4 -23 24 -65 44 -95z m-222 16 c-39 -186 7 -362 128 -482 109 -108 230
-151 321 -112 74 31 147 163 147 267 0 25 5 39 13 39 25 0 114 -60 172 -117
53 -51 65 -70 97 -153 73 -194 134 -502 110 -561 l-11 -27 -278 -5 c-236 -4
-291 -8 -368 -26 -114 -27 -261 -75 -344 -112 -35 -16 -65 -28 -66 -27 -7 8
-107 479 -124 583 -46 277 -52 514 -16 620 28 82 55 110 142 143 43 17 81 31
84 31 3 1 0 -27 -7 -61z"/>
</g>
</svg>
